<svg width="55" height="57" viewBox="0 0 55 57" fill="none" xmlns="http://www.w3.org/2000/svg">
<path fill-rule="evenodd" clip-rule="evenodd" d="M3 2C3 0.89543 3.89543 0 5 0H52C53.1046 0 54 0.89543 54 2C54 2.02926 53.9994 2.05838 53.9981 2.08734L53.9989 2.93456C54.0003 2.97707 54.0004 3.01963 53.9991 3.06215L54.0423 49.0183C54.0434 50.1229 53.1488 51.0192 52.0442 51.0202C50.9396 51.0212 50.0434 50.1266 50.0423 49.0221L50.0037 7.96174L3.44167 56.3862C2.67608 57.1824 1.41 57.2073 0.613785 56.4417C-0.182425 55.6761 -0.20725 54.41 0.558336 53.6138L48.2639 4H5C3.89543 4 3 3.10457 3 2Z" fill="white"/>
</svg>
