<svg width="20" height="16" viewBox="0 0 20 16" fill="none" xmlns="http://www.w3.org/2000/svg">
<path d="M18 0H2C0.9 0 0.00999999 0.9 0.00999999 2L0 14C0 15.1 0.9 16 2 16H18C19.1 16 20 15.1 20 14V2C20 0.9 19.1 0 18 0ZM17.6 4.25L10.53 8.67C10.21 8.87 9.79 8.87 9.47 8.67L2.4 4.25C2.15 4.09 2 3.82 2 3.53C2 2.86 2.73 2.46 3.3 2.81L10 7L16.7 2.81C17.27 2.46 18 2.86 18 3.53C18 3.82 17.85 4.09 17.6 4.25Z" fill="url(#paint0_linear_2212_2)"/>
<defs>
<linearGradient id="paint0_linear_2212_2" x1="-1.01024e-07" y1="7.97523" x2="20" y2="7.97523" gradientUnits="userSpaceOnUse">
<stop offset="0.140625" stop-color="#B16CEA"/>
<stop offset="0.447917" stop-color="#FF5E69"/>
<stop offset="0.71875" stop-color="#FF8A56"/>
<stop offset="1" stop-color="#FFA84B"/>
</linearGradient>
</defs>
</svg>
