<svg width="18" height="18" viewBox="0 0 18 18" fill="none" xmlns="http://www.w3.org/2000/svg">
<path d="M1.78 12.27L4.32 11.98C4.93 11.91 5.53 12.12 5.96 12.55L7.8 14.39C10.63 12.95 12.95 10.64 14.39 7.79999L12.54 5.94999C12.11 5.51999 11.9 4.91999 11.97 4.30999L12.26 1.78999C12.38 0.779989 13.23 0.019989 14.25 0.019989H15.98C17.11 0.019989 18.05 0.959989 17.98 2.08999C17.45 10.63 10.62 17.45 2.09 17.98C0.959995 18.05 0.019995 17.11 0.019995 15.98V14.25C0.00999501 13.24 0.769995 12.39 1.78 12.27Z" fill="url(#paint0_linear_2212_3)"/>
<defs>
<linearGradient id="paint0_linear_2212_3" x1="0.0198974" y1="8.97402" x2="17.9837" y2="8.97402" gradientUnits="userSpaceOnUse">
<stop offset="0.140625" stop-color="#B16CEA"/>
<stop offset="0.447917" stop-color="#FF5E69"/>
<stop offset="0.71875" stop-color="#FF8A56"/>
<stop offset="1" stop-color="#FFA84B"/>
</linearGradient>
</defs>
</svg>
